<mxfile host="app.diagrams.net" modified="2020-11-24T09:19:57.307Z" agent="5.0 (X11; Linux x86_64) AppleWebKit/537.36 (KHTML, like Gecko) Chrome/86.0.4240.75 Safari/537.36" etag="lvwiw6yehqNfvI8HAbPB" version="13.10.0" type="github">
  <diagram id="HfLiJ4DD011SfzfWRTsT" name="Page-1">
    <mxGraphModel dx="1394" dy="533" grid="1" gridSize="10" guides="1" tooltips="1" connect="1" arrows="1" fold="1" page="1" pageScale="1" pageWidth="827" pageHeight="1169" math="1" shadow="0">
      <root>
        <mxCell id="0" />
        <mxCell id="1" parent="0" />
        <mxCell id="9DUDsAGnaTjI5zjK5OL5-16" value="&lt;b&gt;3.&lt;br&gt;&lt;/b&gt;Scene&lt;br&gt;Graph&lt;br&gt;Embedding" style="text;html=1;align=center;verticalAlign=middle;resizable=0;points=[];autosize=1;" parent="1" vertex="1">
          <mxGeometry x="5" y="330" width="80" height="60" as="geometry" />
        </mxCell>
        <mxCell id="9DUDsAGnaTjI5zjK5OL5-17" value="&lt;b&gt;2.&lt;br&gt;&lt;/b&gt;Question&lt;br&gt;&amp;nbsp;Module" style="rounded=1;whiteSpace=wrap;html=1;" parent="1" vertex="1">
          <mxGeometry x="310" y="80" width="60" height="160" as="geometry" />
        </mxCell>
        <mxCell id="9DUDsAGnaTjI5zjK5OL5-112" value="" style="shape=curlyBracket;whiteSpace=wrap;html=1;rounded=1;align=center;direction=east;" parent="1" vertex="1">
          <mxGeometry x="85" y="280" width="20" height="160" as="geometry" />
        </mxCell>
        <mxCell id="OLSpMZ1pEOFonk4ee4Rg-14" value="" style="group" vertex="1" connectable="0" parent="1">
          <mxGeometry x="250" y="90" width="50" height="140" as="geometry" />
        </mxCell>
        <mxCell id="9DUDsAGnaTjI5zjK5OL5-105" style="edgeStyle=none;rounded=1;orthogonalLoop=1;jettySize=auto;html=1;startArrow=block;startFill=1;startSize=3;endArrow=none;endFill=0;endSize=3;strokeColor=#000000;strokeWidth=1;fontSize=8;" parent="OLSpMZ1pEOFonk4ee4Rg-14" edge="1">
          <mxGeometry x="-115" y="-11" as="geometry">
            <mxPoint x="30" y="9.5" as="targetPoint" />
            <mxPoint x="50" y="9.5" as="sourcePoint" />
          </mxGeometry>
        </mxCell>
        <mxCell id="OLSpMZ1pEOFonk4ee4Rg-3" value="What" style="rect;whiteSpace=wrap;html=1;fillColor=#f8cecc;strokeColor=#b85450;labelPosition=left;verticalLabelPosition=middle;align=right;verticalAlign=middle;spacingRight=10;fontStyle=2" vertex="1" parent="OLSpMZ1pEOFonk4ee4Rg-14">
          <mxGeometry width="20" height="20" as="geometry" />
        </mxCell>
        <mxCell id="OLSpMZ1pEOFonk4ee4Rg-4" value="is&lt;br&gt;" style="rect;whiteSpace=wrap;html=1;fillColor=#f8cecc;strokeColor=#b85450;labelPosition=left;verticalLabelPosition=middle;align=right;verticalAlign=middle;spacingRight=10;fontStyle=2" vertex="1" parent="OLSpMZ1pEOFonk4ee4Rg-14">
          <mxGeometry y="30" width="20" height="20" as="geometry" />
        </mxCell>
        <mxCell id="OLSpMZ1pEOFonk4ee4Rg-5" value="this" style="rect;whiteSpace=wrap;html=1;fillColor=#f8cecc;strokeColor=#b85450;labelPosition=left;verticalLabelPosition=middle;align=right;verticalAlign=middle;spacingRight=10;fontStyle=2" vertex="1" parent="OLSpMZ1pEOFonk4ee4Rg-14">
          <mxGeometry y="60" width="20" height="20" as="geometry" />
        </mxCell>
        <mxCell id="OLSpMZ1pEOFonk4ee4Rg-6" value="bird" style="rect;whiteSpace=wrap;html=1;fillColor=#f8cecc;strokeColor=#b85450;labelPosition=left;verticalLabelPosition=middle;align=right;verticalAlign=middle;spacingRight=10;fontStyle=2" vertex="1" parent="OLSpMZ1pEOFonk4ee4Rg-14">
          <mxGeometry y="90" width="20" height="20" as="geometry" />
        </mxCell>
        <mxCell id="OLSpMZ1pEOFonk4ee4Rg-7" value="called?" style="rect;whiteSpace=wrap;html=1;fillColor=#f8cecc;strokeColor=#b85450;labelPosition=left;verticalLabelPosition=middle;align=right;verticalAlign=middle;spacingRight=10;fontStyle=2" vertex="1" parent="OLSpMZ1pEOFonk4ee4Rg-14">
          <mxGeometry y="120" width="20" height="20" as="geometry" />
        </mxCell>
        <mxCell id="OLSpMZ1pEOFonk4ee4Rg-10" style="edgeStyle=none;rounded=1;orthogonalLoop=1;jettySize=auto;html=1;startArrow=block;startFill=1;startSize=3;endArrow=none;endFill=0;endSize=3;strokeColor=#000000;strokeWidth=1;fontSize=8;" edge="1" parent="OLSpMZ1pEOFonk4ee4Rg-14">
          <mxGeometry x="-115" y="19" as="geometry">
            <mxPoint x="30" y="39.5" as="targetPoint" />
            <mxPoint x="50" y="39.5" as="sourcePoint" />
          </mxGeometry>
        </mxCell>
        <mxCell id="OLSpMZ1pEOFonk4ee4Rg-11" style="edgeStyle=none;rounded=1;orthogonalLoop=1;jettySize=auto;html=1;startArrow=block;startFill=1;startSize=3;endArrow=none;endFill=0;endSize=3;strokeColor=#000000;strokeWidth=1;fontSize=8;" edge="1" parent="OLSpMZ1pEOFonk4ee4Rg-14">
          <mxGeometry x="-115" y="49" as="geometry">
            <mxPoint x="30" y="69.5" as="targetPoint" />
            <mxPoint x="50" y="69.5" as="sourcePoint" />
          </mxGeometry>
        </mxCell>
        <mxCell id="OLSpMZ1pEOFonk4ee4Rg-12" style="edgeStyle=none;rounded=1;orthogonalLoop=1;jettySize=auto;html=1;startArrow=block;startFill=1;startSize=3;endArrow=none;endFill=0;endSize=3;strokeColor=#000000;strokeWidth=1;fontSize=8;" edge="1" parent="OLSpMZ1pEOFonk4ee4Rg-14">
          <mxGeometry x="-115" y="79" as="geometry">
            <mxPoint x="30" y="99.5" as="targetPoint" />
            <mxPoint x="50" y="99.5" as="sourcePoint" />
          </mxGeometry>
        </mxCell>
        <mxCell id="OLSpMZ1pEOFonk4ee4Rg-13" style="edgeStyle=none;rounded=1;orthogonalLoop=1;jettySize=auto;html=1;startArrow=block;startFill=1;startSize=3;endArrow=none;endFill=0;endSize=3;strokeColor=#000000;strokeWidth=1;fontSize=8;" edge="1" parent="OLSpMZ1pEOFonk4ee4Rg-14">
          <mxGeometry x="-115" y="109" as="geometry">
            <mxPoint x="30" y="129.5" as="targetPoint" />
            <mxPoint x="50" y="129.5" as="sourcePoint" />
          </mxGeometry>
        </mxCell>
        <mxCell id="OLSpMZ1pEOFonk4ee4Rg-16" value="&lt;b&gt;4.&lt;br&gt;&lt;/b&gt;Scene Graph&lt;br&gt;&amp;nbsp;Module" style="rounded=1;whiteSpace=wrap;html=1;" vertex="1" parent="1">
          <mxGeometry x="310" y="280" width="60" height="160" as="geometry" />
        </mxCell>
        <mxCell id="9DUDsAGnaTjI5zjK5OL5-45" value="&lt;i&gt;parrot&lt;/i&gt;" style="ellipse;whiteSpace=wrap;html=1;fillColor=#dae8fc;strokeColor=#6c8ebf;labelPosition=center;verticalLabelPosition=bottom;align=center;verticalAlign=top;" parent="1" vertex="1">
          <mxGeometry x="180" y="370" width="20" height="20" as="geometry" />
        </mxCell>
        <mxCell id="9DUDsAGnaTjI5zjK5OL5-82" style="edgeStyle=none;rounded=1;orthogonalLoop=1;jettySize=auto;html=1;exitX=1;exitY=0.5;exitDx=0;exitDy=0;dashed=1;startArrow=none;startFill=0;startSize=3;endArrow=none;endFill=0;endSize=3;strokeColor=#000000;strokeWidth=1;fontSize=8;" parent="1" source="9DUDsAGnaTjI5zjK5OL5-46" edge="1">
          <mxGeometry x="110" y="330" as="geometry">
            <mxPoint x="270" y="340.16666666666674" as="targetPoint" />
          </mxGeometry>
        </mxCell>
        <mxCell id="9DUDsAGnaTjI5zjK5OL5-46" value="&lt;i&gt;feathers&lt;/i&gt;" style="ellipse;whiteSpace=wrap;html=1;fillColor=#dae8fc;strokeColor=#6c8ebf;labelPosition=center;verticalLabelPosition=top;align=center;verticalAlign=bottom;" parent="1" vertex="1">
          <mxGeometry x="230" y="330" width="20" height="20" as="geometry" />
        </mxCell>
        <mxCell id="9DUDsAGnaTjI5zjK5OL5-75" style="edgeStyle=none;rounded=1;orthogonalLoop=1;jettySize=auto;html=1;exitX=0;exitY=0.5;exitDx=0;exitDy=0;entryX=1;entryY=0.5;entryDx=0;entryDy=0;startArrow=none;startFill=0;startSize=3;endArrow=block;endFill=1;endSize=3;strokeColor=#000000;strokeWidth=1;fontSize=8;" parent="1" source="9DUDsAGnaTjI5zjK5OL5-49" target="9DUDsAGnaTjI5zjK5OL5-45" edge="1">
          <mxGeometry x="110" y="330" as="geometry" />
        </mxCell>
        <mxCell id="9DUDsAGnaTjI5zjK5OL5-76" style="edgeStyle=none;rounded=1;orthogonalLoop=1;jettySize=auto;html=1;exitX=0.5;exitY=0;exitDx=0;exitDy=0;entryX=0.5;entryY=1;entryDx=0;entryDy=0;startArrow=none;startFill=0;startSize=3;endArrow=block;endFill=1;endSize=3;strokeColor=#000000;strokeWidth=1;fontSize=8;" parent="1" source="9DUDsAGnaTjI5zjK5OL5-49" target="9DUDsAGnaTjI5zjK5OL5-46" edge="1">
          <mxGeometry x="110" y="330" as="geometry" />
        </mxCell>
        <mxCell id="9DUDsAGnaTjI5zjK5OL5-83" style="edgeStyle=none;rounded=1;orthogonalLoop=1;jettySize=auto;html=1;exitX=1;exitY=0.5;exitDx=0;exitDy=0;dashed=1;startArrow=none;startFill=0;startSize=3;endArrow=none;endFill=0;endSize=3;strokeColor=#000000;strokeWidth=1;fontSize=8;" parent="1" source="9DUDsAGnaTjI5zjK5OL5-49" edge="1">
          <mxGeometry x="110" y="330" as="geometry">
            <mxPoint x="270" y="380.16666666666674" as="targetPoint" />
          </mxGeometry>
        </mxCell>
        <mxCell id="9DUDsAGnaTjI5zjK5OL5-49" value="&lt;i&gt;white&lt;/i&gt;" style="ellipse;whiteSpace=wrap;html=1;fillColor=#d5e8d4;strokeColor=#82b366;labelPosition=center;verticalLabelPosition=bottom;align=center;verticalAlign=top;" parent="1" vertex="1">
          <mxGeometry x="230" y="370" width="20" height="20" as="geometry" />
        </mxCell>
        <mxCell id="9DUDsAGnaTjI5zjK5OL5-81" style="edgeStyle=none;rounded=1;orthogonalLoop=1;jettySize=auto;html=1;exitX=0;exitY=0.5;exitDx=0;exitDy=0;startArrow=none;startFill=0;startSize=3;endArrow=none;endFill=0;endSize=3;strokeColor=#000000;strokeWidth=1;fontSize=8;dashed=1;" parent="1" source="9DUDsAGnaTjI5zjK5OL5-51" edge="1">
          <mxGeometry x="110" y="330" as="geometry">
            <mxPoint x="110" y="340" as="targetPoint" />
          </mxGeometry>
        </mxCell>
        <mxCell id="9DUDsAGnaTjI5zjK5OL5-51" value="&lt;i&gt;palm tree&lt;/i&gt;" style="ellipse;whiteSpace=wrap;html=1;fillColor=#dae8fc;strokeColor=#6c8ebf;labelPosition=center;verticalLabelPosition=top;align=center;verticalAlign=bottom;" parent="1" vertex="1">
          <mxGeometry x="130" y="330" width="20" height="20" as="geometry" />
        </mxCell>
        <mxCell id="9DUDsAGnaTjI5zjK5OL5-78" style="edgeStyle=none;rounded=1;orthogonalLoop=1;jettySize=auto;html=1;exitX=1;exitY=0.5;exitDx=0;exitDy=0;entryX=0;entryY=0.5;entryDx=0;entryDy=0;startArrow=none;startFill=0;startSize=3;endArrow=block;endFill=1;endSize=3;strokeColor=#000000;strokeWidth=1;fontSize=8;" parent="1" source="9DUDsAGnaTjI5zjK5OL5-52" target="9DUDsAGnaTjI5zjK5OL5-45" edge="1">
          <mxGeometry x="110" y="330" as="geometry" />
        </mxCell>
        <mxCell id="9DUDsAGnaTjI5zjK5OL5-52" value="&lt;i&gt;behind&lt;/i&gt;" style="ellipse;whiteSpace=wrap;html=1;fillColor=#ffe6cc;strokeColor=#d79b00;labelPosition=center;verticalLabelPosition=bottom;align=center;verticalAlign=top;" parent="1" vertex="1">
          <mxGeometry x="130" y="370" width="20" height="20" as="geometry" />
        </mxCell>
        <mxCell id="9DUDsAGnaTjI5zjK5OL5-77" style="edgeStyle=none;rounded=1;orthogonalLoop=1;jettySize=auto;html=1;exitX=0.5;exitY=1;exitDx=0;exitDy=0;entryX=0.5;entryY=0;entryDx=0;entryDy=0;startArrow=none;startFill=0;startSize=3;endArrow=block;endFill=1;endSize=3;strokeColor=#000000;strokeWidth=1;fontSize=8;" parent="1" source="9DUDsAGnaTjI5zjK5OL5-51" target="9DUDsAGnaTjI5zjK5OL5-52" edge="1">
          <mxGeometry x="110" y="330" as="geometry" />
        </mxCell>
        <mxCell id="9DUDsAGnaTjI5zjK5OL5-80" style="edgeStyle=none;rounded=1;orthogonalLoop=1;jettySize=auto;html=1;exitX=0;exitY=0.5;exitDx=0;exitDy=0;entryX=1;entryY=0.5;entryDx=0;entryDy=0;startArrow=none;startFill=0;startSize=3;endArrow=block;endFill=1;endSize=3;strokeColor=#000000;strokeWidth=1;fontSize=8;" parent="1" source="9DUDsAGnaTjI5zjK5OL5-53" target="9DUDsAGnaTjI5zjK5OL5-51" edge="1">
          <mxGeometry x="110" y="330" as="geometry" />
        </mxCell>
        <mxCell id="9DUDsAGnaTjI5zjK5OL5-53" value="&lt;i&gt;in front of&lt;/i&gt;" style="ellipse;whiteSpace=wrap;html=1;fillColor=#ffe6cc;strokeColor=#d79b00;labelPosition=center;verticalLabelPosition=top;align=center;verticalAlign=bottom;" parent="1" vertex="1">
          <mxGeometry x="180" y="330" width="20" height="20" as="geometry" />
        </mxCell>
        <mxCell id="9DUDsAGnaTjI5zjK5OL5-79" style="edgeStyle=none;rounded=1;orthogonalLoop=1;jettySize=auto;html=1;exitX=0.5;exitY=0;exitDx=0;exitDy=0;entryX=0.5;entryY=1;entryDx=0;entryDy=0;startArrow=none;startFill=0;startSize=3;endArrow=block;endFill=1;endSize=3;strokeColor=#000000;strokeWidth=1;fontSize=8;" parent="1" source="9DUDsAGnaTjI5zjK5OL5-45" target="9DUDsAGnaTjI5zjK5OL5-53" edge="1">
          <mxGeometry x="110" y="330" as="geometry" />
        </mxCell>
        <mxCell id="OLSpMZ1pEOFonk4ee4Rg-28" style="edgeStyle=orthogonalEdgeStyle;rounded=1;orthogonalLoop=1;jettySize=auto;html=1;startArrow=block;startFill=1;startSize=3;endArrow=none;endFill=0;endSize=3;strokeWidth=1;fontSize=8;entryX=1;entryY=0.5;entryDx=0;entryDy=0;exitX=0.5;exitY=1;exitDx=0;exitDy=0;" edge="1" parent="1" source="OLSpMZ1pEOFonk4ee4Rg-30" target="OLSpMZ1pEOFonk4ee4Rg-16">
          <mxGeometry x="160" y="560" as="geometry">
            <mxPoint x="370" y="360" as="targetPoint" />
            <mxPoint x="400" y="360" as="sourcePoint" />
          </mxGeometry>
        </mxCell>
        <mxCell id="OLSpMZ1pEOFonk4ee4Rg-30" value="&lt;b&gt;5.&lt;br&gt;&lt;/b&gt;Reasoning&lt;br&gt;&amp;nbsp;Module" style="rounded=1;whiteSpace=wrap;html=1;" vertex="1" parent="1">
          <mxGeometry x="400" y="200" width="80" height="120" as="geometry" />
        </mxCell>
        <mxCell id="OLSpMZ1pEOFonk4ee4Rg-31" value="&lt;b&gt;6.&lt;br&gt;&lt;/b&gt;Output&lt;br&gt;Module" style="rounded=1;whiteSpace=wrap;html=1;" vertex="1" parent="1">
          <mxGeometry x="500" y="200" width="80" height="120" as="geometry" />
        </mxCell>
        <mxCell id="OLSpMZ1pEOFonk4ee4Rg-32" style="edgeStyle=orthogonalEdgeStyle;rounded=1;orthogonalLoop=1;jettySize=auto;html=1;startArrow=block;startFill=1;startSize=3;endArrow=none;endFill=0;endSize=3;strokeWidth=1;fontSize=8;entryX=1;entryY=0.5;entryDx=0;entryDy=0;exitX=0.5;exitY=0;exitDx=0;exitDy=0;" edge="1" parent="1" source="OLSpMZ1pEOFonk4ee4Rg-30" target="9DUDsAGnaTjI5zjK5OL5-17">
          <mxGeometry x="170" y="570" as="geometry">
            <mxPoint x="420" y="110" as="targetPoint" />
            <mxPoint x="440" y="170" as="sourcePoint" />
          </mxGeometry>
        </mxCell>
        <mxCell id="OLSpMZ1pEOFonk4ee4Rg-33" style="edgeStyle=none;rounded=1;orthogonalLoop=1;jettySize=auto;html=1;startArrow=block;startFill=1;startSize=3;endArrow=none;endFill=0;endSize=3;strokeColor=#000000;strokeWidth=1;fontSize=8;" edge="1" parent="1">
          <mxGeometry x="-105" y="119" as="geometry">
            <mxPoint x="280" y="360" as="targetPoint" />
            <mxPoint x="300" y="360" as="sourcePoint" />
          </mxGeometry>
        </mxCell>
        <mxCell id="OLSpMZ1pEOFonk4ee4Rg-34" value="" style="shape=curlyBracket;whiteSpace=wrap;html=1;rounded=1;align=center;direction=east;" vertex="1" parent="1">
          <mxGeometry x="180" y="80" width="20" height="160" as="geometry" />
        </mxCell>
        <mxCell id="OLSpMZ1pEOFonk4ee4Rg-35" value="&lt;b&gt;1.&lt;br&gt;&lt;/b&gt;Question&lt;br&gt;Embedding" style="text;html=1;align=center;verticalAlign=middle;resizable=0;points=[];autosize=1;" vertex="1" parent="1">
          <mxGeometry x="105" y="135" width="80" height="50" as="geometry" />
        </mxCell>
        <mxCell id="OLSpMZ1pEOFonk4ee4Rg-38" style="edgeStyle=none;rounded=1;orthogonalLoop=1;jettySize=auto;html=1;startArrow=block;startFill=1;startSize=3;endArrow=none;endFill=0;endSize=3;strokeColor=#000000;strokeWidth=1;fontSize=8;entryX=1;entryY=0.5;entryDx=0;entryDy=0;exitX=0;exitY=0.5;exitDx=0;exitDy=0;" edge="1" parent="1" source="OLSpMZ1pEOFonk4ee4Rg-31" target="OLSpMZ1pEOFonk4ee4Rg-30">
          <mxGeometry x="-95" y="129" as="geometry">
            <mxPoint x="290" y="370" as="targetPoint" />
            <mxPoint x="310" y="370" as="sourcePoint" />
          </mxGeometry>
        </mxCell>
        <mxCell id="OLSpMZ1pEOFonk4ee4Rg-51" value="" style="group" vertex="1" connectable="0" parent="1">
          <mxGeometry x="690" y="120" width="100" height="210" as="geometry" />
        </mxCell>
        <mxCell id="OLSpMZ1pEOFonk4ee4Rg-36" value="&lt;b&gt;Legend&lt;/b&gt;" style="text;html=1;align=center;verticalAlign=middle;resizable=0;points=[];autosize=1;" vertex="1" parent="OLSpMZ1pEOFonk4ee4Rg-51">
          <mxGeometry x="20" width="60" height="20" as="geometry" />
        </mxCell>
        <mxCell id="OLSpMZ1pEOFonk4ee4Rg-39" value="Relation&lt;br&gt;Vector" style="ellipse;whiteSpace=wrap;html=1;fillColor=#ffe6cc;strokeColor=#d79b00;labelPosition=left;verticalLabelPosition=middle;align=right;verticalAlign=middle;spacingRight=5;fontStyle=0" vertex="1" parent="OLSpMZ1pEOFonk4ee4Rg-51">
          <mxGeometry x="60" y="90" width="20" height="20" as="geometry" />
        </mxCell>
        <mxCell id="OLSpMZ1pEOFonk4ee4Rg-40" value="Attribute&lt;br&gt;Vector" style="ellipse;whiteSpace=wrap;html=1;fillColor=#d5e8d4;strokeColor=#82b366;labelPosition=left;verticalLabelPosition=middle;align=right;verticalAlign=middle;spacingRight=5;fontStyle=0" vertex="1" parent="OLSpMZ1pEOFonk4ee4Rg-51">
          <mxGeometry x="60" y="130" width="20" height="20" as="geometry" />
        </mxCell>
        <mxCell id="OLSpMZ1pEOFonk4ee4Rg-41" value="Object&lt;br&gt;Vector" style="ellipse;whiteSpace=wrap;html=1;fillColor=#dae8fc;strokeColor=#6c8ebf;labelPosition=left;verticalLabelPosition=middle;align=right;verticalAlign=middle;spacingRight=5;fontStyle=0" vertex="1" parent="OLSpMZ1pEOFonk4ee4Rg-51">
          <mxGeometry x="60" y="50" width="20" height="20" as="geometry" />
        </mxCell>
        <mxCell id="OLSpMZ1pEOFonk4ee4Rg-43" value="" style="endArrow=none;dashed=1;html=1;strokeColor=#000000;" edge="1" parent="OLSpMZ1pEOFonk4ee4Rg-51">
          <mxGeometry width="50" height="50" relative="1" as="geometry">
            <mxPoint y="170" as="sourcePoint" />
            <mxPoint x="100" y="170" as="targetPoint" />
          </mxGeometry>
        </mxCell>
        <mxCell id="OLSpMZ1pEOFonk4ee4Rg-44" value="&lt;span style=&quot;font-style: normal&quot;&gt;Word&lt;br&gt;Vector&lt;/span&gt;" style="rect;whiteSpace=wrap;html=1;fillColor=#f8cecc;strokeColor=#b85450;labelPosition=left;verticalLabelPosition=middle;align=right;verticalAlign=middle;spacingRight=10;fontStyle=2" vertex="1" parent="OLSpMZ1pEOFonk4ee4Rg-51">
          <mxGeometry x="60" y="190" width="20" height="20" as="geometry" />
        </mxCell>
        <mxCell id="OLSpMZ1pEOFonk4ee4Rg-50" value="" style="endArrow=none;html=1;strokeColor=#000000;" edge="1" parent="OLSpMZ1pEOFonk4ee4Rg-51">
          <mxGeometry width="50" height="50" relative="1" as="geometry">
            <mxPoint y="30" as="sourcePoint" />
            <mxPoint x="100" y="30" as="targetPoint" />
          </mxGeometry>
        </mxCell>
        <mxCell id="OLSpMZ1pEOFonk4ee4Rg-52" style="edgeStyle=none;rounded=1;orthogonalLoop=1;jettySize=auto;html=1;startArrow=block;startFill=1;startSize=3;endArrow=none;endFill=0;endSize=3;strokeColor=#000000;strokeWidth=1;fontSize=8;entryX=1;entryY=0.5;entryDx=0;entryDy=0;" edge="1" parent="1" target="OLSpMZ1pEOFonk4ee4Rg-31">
          <mxGeometry x="-85" y="139" as="geometry">
            <mxPoint x="490" y="270" as="targetPoint" />
            <mxPoint x="600" y="260" as="sourcePoint" />
          </mxGeometry>
        </mxCell>
        <mxCell id="OLSpMZ1pEOFonk4ee4Rg-53" value="Cross&lt;br&gt;Entropy&lt;br&gt;Loss" style="text;html=1;align=center;verticalAlign=middle;resizable=0;points=[];autosize=1;" vertex="1" parent="1">
          <mxGeometry x="585" y="135" width="60" height="50" as="geometry" />
        </mxCell>
        <mxCell id="OLSpMZ1pEOFonk4ee4Rg-58" value="" style="rect;whiteSpace=wrap;html=1;strokeColor=#666666;labelPosition=left;verticalLabelPosition=middle;align=right;verticalAlign=middle;spacingRight=10;fontStyle=2;fontColor=#333333;fillColor=#f5f5f5;" vertex="1" parent="1">
          <mxGeometry x="610" y="275" width="10" height="10" as="geometry" />
        </mxCell>
        <mxCell id="OLSpMZ1pEOFonk4ee4Rg-59" value="" style="rect;whiteSpace=wrap;html=1;strokeColor=#666666;labelPosition=left;verticalLabelPosition=middle;align=right;verticalAlign=middle;spacingRight=10;fontStyle=2;fontColor=#333333;fillColor=#f5f5f5;" vertex="1" parent="1">
          <mxGeometry x="610" y="290" width="10" height="10" as="geometry" />
        </mxCell>
        <mxCell id="OLSpMZ1pEOFonk4ee4Rg-60" value="" style="rect;whiteSpace=wrap;html=1;strokeColor=#666666;labelPosition=left;verticalLabelPosition=middle;align=right;verticalAlign=middle;spacingRight=10;fontStyle=2;fontColor=#333333;fillColor=#f5f5f5;" vertex="1" parent="1">
          <mxGeometry x="610" y="305" width="10" height="10" as="geometry" />
        </mxCell>
        <mxCell id="OLSpMZ1pEOFonk4ee4Rg-61" value="" style="rect;whiteSpace=wrap;html=1;strokeColor=#666666;labelPosition=left;verticalLabelPosition=middle;align=right;verticalAlign=middle;spacingRight=10;fontStyle=2;fontColor=#333333;fillColor=#f5f5f5;" vertex="1" parent="1">
          <mxGeometry x="610" y="320" width="10" height="10" as="geometry" />
        </mxCell>
        <mxCell id="OLSpMZ1pEOFonk4ee4Rg-64" value="" style="rect;whiteSpace=wrap;html=1;strokeColor=#666666;labelPosition=left;verticalLabelPosition=middle;align=right;verticalAlign=middle;spacingRight=10;fontStyle=2;fontColor=#333333;fillColor=#f5f5f5;" vertex="1" parent="1">
          <mxGeometry x="610" y="190" width="10" height="10" as="geometry" />
        </mxCell>
        <mxCell id="OLSpMZ1pEOFonk4ee4Rg-65" value="" style="rect;whiteSpace=wrap;html=1;strokeColor=#666666;labelPosition=left;verticalLabelPosition=middle;align=right;verticalAlign=middle;spacingRight=10;fontStyle=2;fontColor=#333333;fillColor=#f5f5f5;" vertex="1" parent="1">
          <mxGeometry x="610" y="205" width="10" height="10" as="geometry" />
        </mxCell>
        <mxCell id="OLSpMZ1pEOFonk4ee4Rg-66" value="parrot" style="rect;whiteSpace=wrap;html=1;labelPosition=right;verticalLabelPosition=middle;align=left;verticalAlign=middle;spacingRight=0;fontStyle=2;spacingLeft=5;strokeColor=#666666;fontColor=#333333;fillColor=#999999;" vertex="1" parent="1">
          <mxGeometry x="610" y="220" width="10" height="10" as="geometry" />
        </mxCell>
        <mxCell id="OLSpMZ1pEOFonk4ee4Rg-67" value="" style="rect;whiteSpace=wrap;html=1;strokeColor=#666666;labelPosition=left;verticalLabelPosition=middle;align=right;verticalAlign=middle;spacingRight=10;fontStyle=2;fontColor=#333333;fillColor=#f5f5f5;" vertex="1" parent="1">
          <mxGeometry x="610" y="235" width="10" height="10" as="geometry" />
        </mxCell>
        <mxCell id="OLSpMZ1pEOFonk4ee4Rg-68" style="edgeStyle=none;rounded=1;orthogonalLoop=1;jettySize=auto;html=1;dashed=1;startArrow=none;startFill=0;startSize=3;endArrow=none;endFill=0;endSize=3;strokeColor=#000000;strokeWidth=1;fontSize=8;" edge="1" parent="1">
          <mxGeometry x="475" y="254.82999999999998" as="geometry">
            <mxPoint x="615" y="265" as="targetPoint" />
            <mxPoint x="615" y="255" as="sourcePoint" />
          </mxGeometry>
        </mxCell>
      </root>
    </mxGraphModel>
  </diagram>
</mxfile>
